<svg xmlns="http://www.w3.org/2000/svg" version="1.0" width="569.000000pt" height="439.000000pt" viewBox="0 0 569.000000 439.000000" preserveAspectRatio="xMidYMid meet">

<g transform="translate(0.000000,439.000000) scale(0.100000,-0.100000)" fill="#003f72" stroke="none">
<path d="M2765 4206 c-81 -15 -94 -20 -1005 -394 -377 -154 -873 -357 -1103 -450 -229 -93 -429 -177 -443 -187 -14 -9 -32 -32 -40 -52 -13 -30 -13 -41 -2 -76 7 -22 24 -48 38 -58 14 -11 241 -107 505 -215 698 -285 909 -371 1410 -576 573 -235 547 -225 633 -243 93 -19 171 -19 264 0 80 17 68 12 1232 489 451 185 823 336 828 336 4 0 8 -161 8 -358 0 -354 0 -359 -21 -378 -26 -22 -58 -90 -59 -120 0 -12 13 -46 28 -76 l28 -53 -39 -142 c-22 -78 -37 -149 -34 -158 5 -12 25 -15 106 -15 113 0 111 -2 111 91 0 88 20 79 36 -16 10 -63 20 -75 60 -75 22 0 37 6 41 16 3 9 -11 77 -31 152 -41 154 -42 165 -21 182 22 19 38 83 31 125 -4 20 -22 53 -42 74 l-34 39 2 392 3 393 148 61 c150 62 192 89 203 132 10 38 -4 89 -31 116 -15 15 -239 112 -617 266 -326 132 -813 332 -1083 442 -269 111 -546 224 -615 252 -218 89 -351 112 -495 84z" fill="#003f72"/>
<path d="M1112 1788 c3 -574 4 -626 21 -663 29 -64 67 -113 116 -149 62 -46 1197 -700 1269 -732 97 -43 192 -65 308 -71 223 -12 349 25 621 181 595 342 1024 593 1063 623 25 18 60 55 77 81 62 91 63 104 63 754 0 366 -4 588 -10 588 -5 0 -136 -52 -292 -116 -156 -64 -409 -168 -563 -231 -154 -63 -350 -144 -435 -180 -187 -79 -253 -99 -374 -112 -99 -11 -212 -3 -313 23 -32 9 -245 92 -473 187 -228 94 -521 214 -650 266 -129 52 -276 113 -327 134 -51 21 -95 39 -98 39 -3 0 -4 -280 -3 -622z m2172 -378 c7 -7 12 -68 14 -151 5 -198 14 -189 -181 -189 -106 0 -157 4 -165 12 -18 18 -17 312 1 326 7 6 67 13 133 15 141 4 184 1 198 -13z m-463 -7 c10 -11 15 -56 17 -158 3 -121 1 -145 -13 -159 -14 -13 -41 -16 -170 -16 -112 0 -156 3 -162 13 -11 18 -4 309 9 324 8 10 50 13 158 13 125 0 150 -3 161 -17z m459 -453 c20 -20 21 -30 18 -164 -2 -103 -7 -148 -17 -159 -11 -14 -36 -17 -158 -17 -80 0 -153 5 -164 10 -18 10 -19 23 -19 171 0 149 1 160 20 167 10 4 82 8 159 10 132 3 141 2 161 -18z m-450 -9 c5 -11 10 -81 10 -157 0 -183 10 -174 -180 -174 -194 0 -185 -9 -176 182 3 78 11 147 17 155 9 10 50 13 165 13 141 0 154 -2 164 -19z" fill="#003f72"/>
</g>
</svg>